<mxfile host="app.diagrams.net" modified="2024-03-24T10:54:06.887Z" agent="Mozilla/5.0 (Macintosh; Intel Mac OS X 10_15_7) AppleWebKit/537.36 (KHTML, like Gecko) Chrome/120.0.0.0 Whale/3.24.223.18 Safari/537.36" etag="9O6Vzt68-v8OG0-TclMc" version="24.0.7" type="github">
  <diagram name="페이지-1" id="zxHo8dAMRIaKnlPVU3Zw">
    <mxGraphModel dx="524" dy="997" grid="1" gridSize="10" guides="1" tooltips="1" connect="1" arrows="1" fold="1" page="1" pageScale="1" pageWidth="1169" pageHeight="827" math="0" shadow="0">
      <root>
        <mxCell id="0" />
        <mxCell id="1" parent="0" />
        <mxCell id="N1vsClH1t3XNak-WzO01-1" value="" style="childLayout=tableLayout;recursiveResize=0;shadow=0;fillColor=#f5f5f5;strokeColor=none;opacity=10;fontColor=#333333;" parent="1" vertex="1">
          <mxGeometry x="190" y="360" width="420" height="234" as="geometry" />
        </mxCell>
        <mxCell id="N1vsClH1t3XNak-WzO01-2" value="" style="shape=tableRow;horizontal=0;startSize=0;swimlaneHead=0;swimlaneBody=0;top=0;left=0;bottom=0;right=0;dropTarget=0;collapsible=0;recursiveResize=0;expand=0;fontStyle=0;fillColor=none;strokeColor=inherit;opacity=0;" parent="N1vsClH1t3XNak-WzO01-1" vertex="1">
          <mxGeometry width="420" height="47" as="geometry" />
        </mxCell>
        <mxCell id="N1vsClH1t3XNak-WzO01-3" value="time" style="connectable=0;recursiveResize=0;strokeColor=inherit;fillColor=none;align=center;whiteSpace=wrap;html=1;opacity=30;" parent="N1vsClH1t3XNak-WzO01-2" vertex="1">
          <mxGeometry width="60" height="47" as="geometry">
            <mxRectangle width="60" height="47" as="alternateBounds" />
          </mxGeometry>
        </mxCell>
        <mxCell id="N1vsClH1t3XNak-WzO01-4" value="" style="connectable=0;recursiveResize=0;strokeColor=inherit;fillColor=none;align=center;whiteSpace=wrap;html=1;opacity=30;" parent="N1vsClH1t3XNak-WzO01-2" vertex="1">
          <mxGeometry x="60" width="60" height="47" as="geometry">
            <mxRectangle width="60" height="47" as="alternateBounds" />
          </mxGeometry>
        </mxCell>
        <mxCell id="N1vsClH1t3XNak-WzO01-5" value="" style="connectable=0;recursiveResize=0;strokeColor=inherit;fillColor=none;align=center;whiteSpace=wrap;html=1;opacity=30;" parent="N1vsClH1t3XNak-WzO01-2" vertex="1">
          <mxGeometry x="120" width="60" height="47" as="geometry">
            <mxRectangle width="60" height="47" as="alternateBounds" />
          </mxGeometry>
        </mxCell>
        <mxCell id="N1vsClH1t3XNak-WzO01-6" style="connectable=0;recursiveResize=0;strokeColor=inherit;fillColor=none;align=center;whiteSpace=wrap;html=1;opacity=30;" parent="N1vsClH1t3XNak-WzO01-2" vertex="1">
          <mxGeometry x="180" width="60" height="47" as="geometry">
            <mxRectangle width="60" height="47" as="alternateBounds" />
          </mxGeometry>
        </mxCell>
        <mxCell id="N1vsClH1t3XNak-WzO01-7" style="connectable=0;recursiveResize=0;strokeColor=inherit;fillColor=none;align=center;whiteSpace=wrap;html=1;opacity=30;" parent="N1vsClH1t3XNak-WzO01-2" vertex="1">
          <mxGeometry x="240" width="60" height="47" as="geometry">
            <mxRectangle width="60" height="47" as="alternateBounds" />
          </mxGeometry>
        </mxCell>
        <mxCell id="N1vsClH1t3XNak-WzO01-8" style="connectable=0;recursiveResize=0;strokeColor=inherit;fillColor=none;align=center;whiteSpace=wrap;html=1;opacity=30;" parent="N1vsClH1t3XNak-WzO01-2" vertex="1">
          <mxGeometry x="300" width="60" height="47" as="geometry">
            <mxRectangle width="60" height="47" as="alternateBounds" />
          </mxGeometry>
        </mxCell>
        <mxCell id="N1vsClH1t3XNak-WzO01-9" style="connectable=0;recursiveResize=0;strokeColor=inherit;fillColor=none;align=center;whiteSpace=wrap;html=1;opacity=30;" parent="N1vsClH1t3XNak-WzO01-2" vertex="1">
          <mxGeometry x="360" width="60" height="47" as="geometry">
            <mxRectangle width="60" height="47" as="alternateBounds" />
          </mxGeometry>
        </mxCell>
        <mxCell id="N1vsClH1t3XNak-WzO01-10" style="shape=tableRow;horizontal=0;startSize=0;swimlaneHead=0;swimlaneBody=0;top=0;left=0;bottom=0;right=0;dropTarget=0;collapsible=0;recursiveResize=0;expand=0;fontStyle=0;fillColor=none;strokeColor=default;opacity=30;" parent="N1vsClH1t3XNak-WzO01-1" vertex="1">
          <mxGeometry y="47" width="420" height="46" as="geometry" />
        </mxCell>
        <mxCell id="N1vsClH1t3XNak-WzO01-11" value="event" style="connectable=0;recursiveResize=0;strokeColor=inherit;fillColor=none;align=center;whiteSpace=wrap;html=1;opacity=30;" parent="N1vsClH1t3XNak-WzO01-10" vertex="1">
          <mxGeometry width="60" height="46" as="geometry">
            <mxRectangle width="60" height="46" as="alternateBounds" />
          </mxGeometry>
        </mxCell>
        <mxCell id="N1vsClH1t3XNak-WzO01-12" value="" style="connectable=0;recursiveResize=0;strokeColor=default;fillColor=none;align=center;whiteSpace=wrap;html=1;opacity=30;" parent="N1vsClH1t3XNak-WzO01-10" vertex="1">
          <mxGeometry x="60" width="60" height="46" as="geometry">
            <mxRectangle width="60" height="46" as="alternateBounds" />
          </mxGeometry>
        </mxCell>
        <mxCell id="N1vsClH1t3XNak-WzO01-13" value="" style="connectable=0;recursiveResize=0;strokeColor=default;fillColor=none;align=center;whiteSpace=wrap;html=1;opacity=30;" parent="N1vsClH1t3XNak-WzO01-10" vertex="1">
          <mxGeometry x="120" width="60" height="46" as="geometry">
            <mxRectangle width="60" height="46" as="alternateBounds" />
          </mxGeometry>
        </mxCell>
        <mxCell id="N1vsClH1t3XNak-WzO01-14" style="connectable=0;recursiveResize=0;strokeColor=default;fillColor=none;align=center;whiteSpace=wrap;html=1;opacity=30;" parent="N1vsClH1t3XNak-WzO01-10" vertex="1">
          <mxGeometry x="180" width="60" height="46" as="geometry">
            <mxRectangle width="60" height="46" as="alternateBounds" />
          </mxGeometry>
        </mxCell>
        <mxCell id="N1vsClH1t3XNak-WzO01-15" style="connectable=0;recursiveResize=0;strokeColor=default;fillColor=none;align=center;whiteSpace=wrap;html=1;opacity=30;" parent="N1vsClH1t3XNak-WzO01-10" vertex="1">
          <mxGeometry x="240" width="60" height="46" as="geometry">
            <mxRectangle width="60" height="46" as="alternateBounds" />
          </mxGeometry>
        </mxCell>
        <mxCell id="N1vsClH1t3XNak-WzO01-16" style="connectable=0;recursiveResize=0;strokeColor=default;fillColor=none;align=center;whiteSpace=wrap;html=1;opacity=30;" parent="N1vsClH1t3XNak-WzO01-10" vertex="1">
          <mxGeometry x="300" width="60" height="46" as="geometry">
            <mxRectangle width="60" height="46" as="alternateBounds" />
          </mxGeometry>
        </mxCell>
        <mxCell id="N1vsClH1t3XNak-WzO01-17" style="connectable=0;recursiveResize=0;strokeColor=default;fillColor=none;align=center;whiteSpace=wrap;html=1;opacity=30;" parent="N1vsClH1t3XNak-WzO01-10" vertex="1">
          <mxGeometry x="360" width="60" height="46" as="geometry">
            <mxRectangle width="60" height="46" as="alternateBounds" />
          </mxGeometry>
        </mxCell>
        <mxCell id="N1vsClH1t3XNak-WzO01-18" style="shape=tableRow;horizontal=0;startSize=0;swimlaneHead=0;swimlaneBody=0;top=0;left=0;bottom=0;right=0;dropTarget=0;collapsible=0;recursiveResize=0;expand=0;fontStyle=0;fillColor=none;strokeColor=default;opacity=30;" parent="N1vsClH1t3XNak-WzO01-1" vertex="1">
          <mxGeometry y="93" width="420" height="47" as="geometry" />
        </mxCell>
        <mxCell id="N1vsClH1t3XNak-WzO01-19" value="window" style="connectable=0;recursiveResize=0;strokeColor=inherit;fillColor=none;align=center;whiteSpace=wrap;html=1;opacity=30;rowspan=3;colspan=1;" parent="N1vsClH1t3XNak-WzO01-18" vertex="1">
          <mxGeometry width="60" height="141" as="geometry">
            <mxRectangle width="60" height="47" as="alternateBounds" />
          </mxGeometry>
        </mxCell>
        <mxCell id="N1vsClH1t3XNak-WzO01-20" value="" style="connectable=0;recursiveResize=0;strokeColor=default;fillColor=none;align=center;whiteSpace=wrap;html=1;opacity=30;rowspan=3;colspan=1;" parent="N1vsClH1t3XNak-WzO01-18" vertex="1">
          <mxGeometry x="60" width="60" height="141" as="geometry">
            <mxRectangle width="60" height="47" as="alternateBounds" />
          </mxGeometry>
        </mxCell>
        <mxCell id="N1vsClH1t3XNak-WzO01-21" value="" style="connectable=0;recursiveResize=0;strokeColor=default;fillColor=none;align=center;whiteSpace=wrap;html=1;opacity=30;rowspan=3;colspan=1;" parent="N1vsClH1t3XNak-WzO01-18" vertex="1">
          <mxGeometry x="120" width="60" height="141" as="geometry">
            <mxRectangle width="60" height="47" as="alternateBounds" />
          </mxGeometry>
        </mxCell>
        <mxCell id="N1vsClH1t3XNak-WzO01-22" style="connectable=0;recursiveResize=0;strokeColor=default;fillColor=none;align=center;whiteSpace=wrap;html=1;opacity=30;rowspan=3;colspan=1;" parent="N1vsClH1t3XNak-WzO01-18" vertex="1">
          <mxGeometry x="180" width="60" height="141" as="geometry">
            <mxRectangle width="60" height="47" as="alternateBounds" />
          </mxGeometry>
        </mxCell>
        <mxCell id="N1vsClH1t3XNak-WzO01-23" style="connectable=0;recursiveResize=0;strokeColor=default;fillColor=none;align=center;whiteSpace=wrap;html=1;opacity=30;rowspan=3;colspan=1;" parent="N1vsClH1t3XNak-WzO01-18" vertex="1">
          <mxGeometry x="240" width="60" height="141" as="geometry">
            <mxRectangle width="60" height="47" as="alternateBounds" />
          </mxGeometry>
        </mxCell>
        <mxCell id="N1vsClH1t3XNak-WzO01-24" style="connectable=0;recursiveResize=0;strokeColor=default;fillColor=none;align=center;whiteSpace=wrap;html=1;opacity=30;rowspan=3;colspan=1;" parent="N1vsClH1t3XNak-WzO01-18" vertex="1">
          <mxGeometry x="300" width="60" height="141" as="geometry">
            <mxRectangle width="60" height="47" as="alternateBounds" />
          </mxGeometry>
        </mxCell>
        <mxCell id="N1vsClH1t3XNak-WzO01-25" style="connectable=0;recursiveResize=0;strokeColor=default;fillColor=none;align=center;whiteSpace=wrap;html=1;opacity=30;rowspan=3;colspan=1;" parent="N1vsClH1t3XNak-WzO01-18" vertex="1">
          <mxGeometry x="360" width="60" height="141" as="geometry">
            <mxRectangle width="60" height="47" as="alternateBounds" />
          </mxGeometry>
        </mxCell>
        <mxCell id="N1vsClH1t3XNak-WzO01-26" style="shape=tableRow;horizontal=0;startSize=0;swimlaneHead=0;swimlaneBody=0;top=0;left=0;bottom=0;right=0;dropTarget=0;collapsible=0;recursiveResize=0;expand=0;fontStyle=0;fillColor=none;strokeColor=default;opacity=30;" parent="N1vsClH1t3XNak-WzO01-1" vertex="1">
          <mxGeometry y="140" width="420" height="47" as="geometry" />
        </mxCell>
        <mxCell id="N1vsClH1t3XNak-WzO01-27" style="connectable=0;recursiveResize=0;strokeColor=inherit;fillColor=none;align=center;whiteSpace=wrap;html=1;opacity=30;" parent="N1vsClH1t3XNak-WzO01-26" vertex="1" visible="0">
          <mxGeometry width="60" height="47" as="geometry">
            <mxRectangle width="60" height="47" as="alternateBounds" />
          </mxGeometry>
        </mxCell>
        <mxCell id="N1vsClH1t3XNak-WzO01-28" style="connectable=0;recursiveResize=0;strokeColor=default;fillColor=none;align=center;whiteSpace=wrap;html=1;opacity=30;" parent="N1vsClH1t3XNak-WzO01-26" vertex="1" visible="0">
          <mxGeometry x="60" width="60" height="47" as="geometry">
            <mxRectangle width="60" height="47" as="alternateBounds" />
          </mxGeometry>
        </mxCell>
        <mxCell id="N1vsClH1t3XNak-WzO01-29" style="connectable=0;recursiveResize=0;strokeColor=default;fillColor=none;align=center;whiteSpace=wrap;html=1;opacity=30;" parent="N1vsClH1t3XNak-WzO01-26" vertex="1" visible="0">
          <mxGeometry x="120" width="60" height="47" as="geometry">
            <mxRectangle width="60" height="47" as="alternateBounds" />
          </mxGeometry>
        </mxCell>
        <mxCell id="N1vsClH1t3XNak-WzO01-30" style="connectable=0;recursiveResize=0;strokeColor=default;fillColor=none;align=center;whiteSpace=wrap;html=1;opacity=30;" parent="N1vsClH1t3XNak-WzO01-26" vertex="1" visible="0">
          <mxGeometry x="180" width="60" height="47" as="geometry">
            <mxRectangle width="60" height="47" as="alternateBounds" />
          </mxGeometry>
        </mxCell>
        <mxCell id="N1vsClH1t3XNak-WzO01-31" style="connectable=0;recursiveResize=0;strokeColor=default;fillColor=none;align=center;whiteSpace=wrap;html=1;opacity=30;" parent="N1vsClH1t3XNak-WzO01-26" vertex="1" visible="0">
          <mxGeometry x="240" width="60" height="47" as="geometry">
            <mxRectangle width="60" height="47" as="alternateBounds" />
          </mxGeometry>
        </mxCell>
        <mxCell id="N1vsClH1t3XNak-WzO01-32" style="connectable=0;recursiveResize=0;strokeColor=default;fillColor=none;align=center;whiteSpace=wrap;html=1;opacity=30;" parent="N1vsClH1t3XNak-WzO01-26" vertex="1" visible="0">
          <mxGeometry x="300" width="60" height="47" as="geometry">
            <mxRectangle width="60" height="47" as="alternateBounds" />
          </mxGeometry>
        </mxCell>
        <mxCell id="N1vsClH1t3XNak-WzO01-33" style="connectable=0;recursiveResize=0;strokeColor=default;fillColor=none;align=center;whiteSpace=wrap;html=1;opacity=30;" parent="N1vsClH1t3XNak-WzO01-26" vertex="1" visible="0">
          <mxGeometry x="360" width="60" height="47" as="geometry">
            <mxRectangle width="60" height="47" as="alternateBounds" />
          </mxGeometry>
        </mxCell>
        <mxCell id="N1vsClH1t3XNak-WzO01-34" style="shape=tableRow;horizontal=0;startSize=0;swimlaneHead=0;swimlaneBody=0;top=0;left=0;bottom=0;right=0;dropTarget=0;collapsible=0;recursiveResize=0;expand=0;fontStyle=0;fillColor=none;strokeColor=default;opacity=30;" parent="N1vsClH1t3XNak-WzO01-1" vertex="1">
          <mxGeometry y="187" width="420" height="47" as="geometry" />
        </mxCell>
        <mxCell id="N1vsClH1t3XNak-WzO01-35" style="connectable=0;recursiveResize=0;strokeColor=inherit;fillColor=none;align=center;whiteSpace=wrap;html=1;opacity=30;" parent="N1vsClH1t3XNak-WzO01-34" vertex="1" visible="0">
          <mxGeometry width="60" height="47" as="geometry">
            <mxRectangle width="60" height="47" as="alternateBounds" />
          </mxGeometry>
        </mxCell>
        <mxCell id="N1vsClH1t3XNak-WzO01-36" style="connectable=0;recursiveResize=0;strokeColor=default;fillColor=none;align=center;whiteSpace=wrap;html=1;opacity=30;" parent="N1vsClH1t3XNak-WzO01-34" vertex="1" visible="0">
          <mxGeometry x="60" width="60" height="47" as="geometry">
            <mxRectangle width="60" height="47" as="alternateBounds" />
          </mxGeometry>
        </mxCell>
        <mxCell id="N1vsClH1t3XNak-WzO01-37" style="connectable=0;recursiveResize=0;strokeColor=default;fillColor=none;align=center;whiteSpace=wrap;html=1;opacity=30;" parent="N1vsClH1t3XNak-WzO01-34" vertex="1" visible="0">
          <mxGeometry x="120" width="60" height="47" as="geometry">
            <mxRectangle width="60" height="47" as="alternateBounds" />
          </mxGeometry>
        </mxCell>
        <mxCell id="N1vsClH1t3XNak-WzO01-38" style="connectable=0;recursiveResize=0;strokeColor=default;fillColor=none;align=center;whiteSpace=wrap;html=1;opacity=30;" parent="N1vsClH1t3XNak-WzO01-34" vertex="1" visible="0">
          <mxGeometry x="180" width="60" height="47" as="geometry">
            <mxRectangle width="60" height="47" as="alternateBounds" />
          </mxGeometry>
        </mxCell>
        <mxCell id="N1vsClH1t3XNak-WzO01-39" style="connectable=0;recursiveResize=0;strokeColor=default;fillColor=none;align=center;whiteSpace=wrap;html=1;opacity=30;" parent="N1vsClH1t3XNak-WzO01-34" vertex="1" visible="0">
          <mxGeometry x="240" width="60" height="47" as="geometry">
            <mxRectangle width="60" height="47" as="alternateBounds" />
          </mxGeometry>
        </mxCell>
        <mxCell id="N1vsClH1t3XNak-WzO01-40" style="connectable=0;recursiveResize=0;strokeColor=default;fillColor=none;align=center;whiteSpace=wrap;html=1;opacity=30;" parent="N1vsClH1t3XNak-WzO01-34" vertex="1" visible="0">
          <mxGeometry x="300" width="60" height="47" as="geometry">
            <mxRectangle width="60" height="47" as="alternateBounds" />
          </mxGeometry>
        </mxCell>
        <mxCell id="N1vsClH1t3XNak-WzO01-41" style="connectable=0;recursiveResize=0;strokeColor=default;fillColor=none;align=center;whiteSpace=wrap;html=1;opacity=30;" parent="N1vsClH1t3XNak-WzO01-34" vertex="1" visible="0">
          <mxGeometry x="360" width="60" height="47" as="geometry">
            <mxRectangle width="60" height="47" as="alternateBounds" />
          </mxGeometry>
        </mxCell>
        <mxCell id="N1vsClH1t3XNak-WzO01-42" value="t10" style="text;html=1;align=center;verticalAlign=middle;whiteSpace=wrap;rounded=0;opacity=30;strokeColor=none;" parent="1" vertex="1">
          <mxGeometry x="280" y="370" width="60" height="30" as="geometry" />
        </mxCell>
        <mxCell id="N1vsClH1t3XNak-WzO01-43" value="t20" style="text;html=1;align=center;verticalAlign=middle;whiteSpace=wrap;rounded=0;opacity=30;strokeColor=none;" parent="1" vertex="1">
          <mxGeometry x="340" y="370" width="60" height="30" as="geometry" />
        </mxCell>
        <mxCell id="N1vsClH1t3XNak-WzO01-44" value="t30" style="text;html=1;align=center;verticalAlign=middle;whiteSpace=wrap;rounded=0;opacity=30;strokeColor=none;" parent="1" vertex="1">
          <mxGeometry x="400" y="370" width="60" height="30" as="geometry" />
        </mxCell>
        <mxCell id="N1vsClH1t3XNak-WzO01-45" value="t40" style="text;html=1;align=center;verticalAlign=middle;whiteSpace=wrap;rounded=0;opacity=30;strokeColor=none;" parent="1" vertex="1">
          <mxGeometry x="460" y="370" width="60" height="30" as="geometry" />
        </mxCell>
        <mxCell id="N1vsClH1t3XNak-WzO01-46" value="t50" style="text;html=1;align=center;verticalAlign=middle;whiteSpace=wrap;rounded=0;opacity=30;strokeColor=none;" parent="1" vertex="1">
          <mxGeometry x="520" y="370" width="60" height="30" as="geometry" />
        </mxCell>
        <mxCell id="N1vsClH1t3XNak-WzO01-47" value="A" style="ellipse;whiteSpace=wrap;html=1;fillColor=#97D077;strokeColor=none;" parent="1" vertex="1">
          <mxGeometry x="280" y="416" width="30" height="30" as="geometry" />
        </mxCell>
        <mxCell id="N1vsClH1t3XNak-WzO01-48" value="B" style="ellipse;whiteSpace=wrap;html=1;fillColor=#97D077;strokeColor=none;" parent="1" vertex="1">
          <mxGeometry x="310" y="416" width="30" height="30" as="geometry" />
        </mxCell>
        <mxCell id="N1vsClH1t3XNak-WzO01-49" value="C" style="ellipse;whiteSpace=wrap;html=1;fillColor=#97D077;strokeColor=none;" parent="1" vertex="1">
          <mxGeometry x="355" y="416" width="30" height="30" as="geometry" />
        </mxCell>
        <mxCell id="N1vsClH1t3XNak-WzO01-50" value="" style="shape=crossbar;whiteSpace=wrap;html=1;rounded=1;strokeWidth=3;fillColor=#dae8fc;strokeColor=#6c8ebf;" parent="1" vertex="1">
          <mxGeometry x="310" y="505" width="180" height="20" as="geometry" />
        </mxCell>
        <mxCell id="N1vsClH1t3XNak-WzO01-52" value="D" style="ellipse;whiteSpace=wrap;html=1;fillColor=#97D077;strokeColor=none;" parent="1" vertex="1">
          <mxGeometry x="390" y="416" width="30" height="30" as="geometry" />
        </mxCell>
        <mxCell id="N1vsClH1t3XNak-WzO01-53" value="E" style="ellipse;whiteSpace=wrap;html=1;fillColor=#97D077;strokeColor=none;" parent="1" vertex="1">
          <mxGeometry x="440" y="416" width="30" height="30" as="geometry" />
        </mxCell>
      </root>
    </mxGraphModel>
  </diagram>
</mxfile>
